<svg width="32" height="31" viewBox="0 0 32 31" fill="none" xmlns="http://www.w3.org/2000/svg">
<path d="M30.9442 20.0743L17.8712 1.13232C17.6312 0.783465 17.3085 0.497908 16.9312 0.300544C16.554 0.103179 16.1335 0 15.7065 0C15.2796 0 14.8592 0.103179 14.4819 0.300544C14.1047 0.497908 13.7819 0.783465 13.5419 1.13232L0.454824 20.0743C0.129431 20.5475 -0.0289078 21.1135 0.00434462 21.6847C0.0375971 22.2559 0.260584 22.8003 0.63875 23.2335L5.85944 29.2027C6.08858 29.4684 6.36952 29.6857 6.68552 29.8419C7.00152 29.998 7.34609 30.0896 7.6987 30.1113H7.86848C8.51748 30.1116 9.14316 29.8723 9.62287 29.4404L15.2963 24.3799C15.4084 24.2787 15.5547 24.2226 15.7065 24.2226C15.8584 24.2226 16.0048 24.2787 16.1169 24.3799L21.7762 29.4404C22.036 29.675 22.3412 29.8555 22.6732 29.971C23.0054 30.0865 23.3576 30.1346 23.709 30.1124C24.0604 30.0902 24.4036 29.9982 24.7181 29.8419C25.0327 29.6856 25.3121 29.4681 25.5396 29.2027L30.7744 23.2335C31.1505 22.7987 31.3709 22.2535 31.4016 21.6824C31.4323 21.1112 31.2715 20.546 30.9442 20.0743ZM24.1814 13.7835L16.6969 20.4517V2.94963L24.1814 13.7835ZM14.702 2.94963V20.4377L7.24596 13.7696L14.702 2.94963ZM7.82603 28.1263C7.74031 28.1225 7.65617 28.1021 7.57847 28.0662C7.50077 28.0301 7.43104 27.9793 7.37329 27.9166L2.15261 21.9335C2.06486 21.8314 2.01322 21.7038 2.00556 21.5701C1.9979 21.4363 2.03463 21.3038 2.11016 21.1926L6.09995 15.4191L14.221 22.6744L13.9522 22.912L8.27878 27.9725C8.21823 28.0278 8.14672 28.07 8.06877 28.0965C7.99083 28.1229 7.90817 28.1331 7.82603 28.1263ZM29.2464 21.9335L24.0257 27.9166C23.9126 28.04 23.7553 28.1151 23.5871 28.1263C23.5028 28.1334 23.4179 28.1234 23.3377 28.0969C23.2574 28.0705 23.1834 28.0281 23.1203 27.9725L23.0778 27.9306L17.2063 22.6744L25.3132 15.4331L29.2888 21.1926C29.3644 21.3038 29.4011 21.4363 29.3934 21.5701C29.3858 21.7038 29.3341 21.8314 29.2464 21.9335Z" fill="#513DFF"/>
</svg>
