<svg width="25" height="26" viewBox="0 0 25 26" fill="none" xmlns="http://www.w3.org/2000/svg">
<path d="M18.8996 2.19161H6.8996C5.79503 2.19161 4.8996 3.12435 4.8996 4.27494V20.9416C4.8996 22.0922 5.79503 23.0249 6.8996 23.0249H18.8996C20.0042 23.0249 20.8996 22.0922 20.8996 20.9416V4.27494C20.8996 3.12435 20.0042 2.19161 18.8996 2.19161Z" stroke="#222222" stroke-width="2" stroke-linecap="round" stroke-linejoin="round"/>
<path d="M9.8996 23.0249V18.8583H15.8996V23.0249" stroke="#222222" stroke-width="2" stroke-linecap="round" stroke-linejoin="round"/>
<path d="M8.8996 6.35828H8.9096" stroke="#222222" stroke-width="2" stroke-linecap="round" stroke-linejoin="round"/>
<path d="M16.8996 6.35828H16.9096" stroke="#222222" stroke-width="2" stroke-linecap="round" stroke-linejoin="round"/>
<path d="M12.8996 6.35828H12.9096" stroke="#222222" stroke-width="2" stroke-linecap="round" stroke-linejoin="round"/>
<path d="M12.8996 10.5249H12.9096" stroke="#222222" stroke-width="2" stroke-linecap="round" stroke-linejoin="round"/>
<path d="M12.8996 14.6916H12.9096" stroke="#222222" stroke-width="2" stroke-linecap="round" stroke-linejoin="round"/>
<path d="M16.8996 10.5249H16.9096" stroke="#222222" stroke-width="2" stroke-linecap="round" stroke-linejoin="round"/>
<path d="M16.8996 14.6916H16.9096" stroke="#222222" stroke-width="2" stroke-linecap="round" stroke-linejoin="round"/>
<path d="M8.8996 10.5249H8.9096" stroke="#222222" stroke-width="2" stroke-linecap="round" stroke-linejoin="round"/>
<path d="M8.8996 14.6916H8.9096" stroke="#222222" stroke-width="2" stroke-linecap="round" stroke-linejoin="round"/>
</svg>
