<svg width="24" height="24" viewBox="0 0 24 24" fill="none" xmlns="http://www.w3.org/2000/svg">
<path d="M3.69958 9.10828L12.6996 2.10828L21.6996 9.10828V20.1083C21.6996 20.6387 21.4889 21.1474 21.1138 21.5225C20.7387 21.8976 20.23 22.1083 19.6996 22.1083H5.69958C5.16915 22.1083 4.66044 21.8976 4.28537 21.5225C3.91029 21.1474 3.69958 20.6387 3.69958 20.1083V9.10828Z" fill="#222222" stroke="#222222" stroke-width="2" stroke-linecap="round" stroke-linejoin="round"/>
<mask id="mask0_8_33" style="mask-type:luminance" maskUnits="userSpaceOnUse" x="9" y="9" width="12" height="13">
<path d="M17.6996 11.1083H12.6996C12.1473 11.1083 11.6996 11.556 11.6996 12.1083V18.1083C11.6996 18.6606 12.1473 19.1083 12.6996 19.1083H17.6996C18.2519 19.1083 18.6996 18.6606 18.6996 18.1083V12.1083C18.6996 11.556 18.2519 11.1083 17.6996 11.1083Z" fill="white" stroke="#222222" stroke-width="4"/>
</mask>
<g mask="url(#mask0_8_33)">
<path d="M17.6996 11.1083H12.6996C12.1473 11.1083 11.6996 11.556 11.6996 12.1083V18.1083C11.6996 18.6606 12.1473 19.1083 12.6996 19.1083H17.6996C18.2519 19.1083 18.6996 18.6606 18.6996 18.1083V12.1083C18.6996 11.556 18.2519 11.1083 17.6996 11.1083Z" fill="white" stroke="#222222" stroke-width="4"/>
</g>
</svg>
