<svg width="23" height="22" viewBox="0 0 23 22" fill="none" xmlns="http://www.w3.org/2000/svg">
<path d="M19.6996 5.33051H3.69958C2.59501 5.33051 1.69958 6.27568 1.69958 7.44162V17.9972C1.69958 19.1631 2.59501 20.1083 3.69958 20.1083H19.6996C20.8042 20.1083 21.6996 19.1631 21.6996 17.9972V7.44162C21.6996 6.27568 20.8042 5.33051 19.6996 5.33051Z" stroke="#727272" stroke-width="2" stroke-linecap="round" stroke-linejoin="round"/>
<path d="M15.6996 20.1083V3.21939C15.6996 2.65949 15.4889 2.12252 15.1138 1.72661C14.7387 1.33069 14.23 1.10828 13.6996 1.10828H9.69958C9.16915 1.10828 8.66044 1.33069 8.28537 1.72661C7.91029 2.12252 7.69958 2.65949 7.69958 3.21939V20.1083" stroke="#727272" stroke-width="2" stroke-linecap="round" stroke-linejoin="round"/>
</svg>
