<svg width="14" height="15" viewBox="0 0 14 15" fill="none" xmlns="http://www.w3.org/2000/svg">
<g clip-path="url(#clip0_5_44)">
<path d="M7.04458 0.665499C6.63931 0.664967 6.24052 0.767254 5.88553 0.962784C5.53054 1.15832 5.23096 1.44071 5.01481 1.78354C4.81875 1.73624 4.61751 1.71387 4.41586 1.71699C3.80902 1.73953 3.23339 1.99167 2.80535 2.42242C2.52441 2.70886 2.31991 3.06128 2.21061 3.44732C2.1013 3.83337 2.0907 4.24068 2.17978 4.63188C1.83667 4.84664 1.55356 5.14482 1.35689 5.4986C1.16021 5.85239 1.05638 6.25023 1.05508 6.655C1.05526 7.06089 1.15856 7.46012 1.35528 7.81517C1.55201 8.17021 1.83572 8.46942 2.17978 8.68477C2.09155 9.07655 2.10321 9.48417 2.21368 9.87023C2.32415 10.2564 2.5299 10.6085 2.812 10.8942C3.09914 11.1807 3.45433 11.3897 3.84426 11.5014C4.2342 11.6132 4.64612 11.6241 5.04143 11.5331C5.25595 11.8709 5.55165 12.1496 5.90157 12.3438C6.25147 12.5379 6.64444 12.6413 7.04458 12.6445C7.44814 12.6446 7.84511 12.5428 8.19883 12.3486C8.55247 12.1542 8.85135 11.8738 9.06771 11.5331C9.46168 11.6214 9.87156 11.6087 10.2593 11.4961C10.6471 11.3836 11.0001 11.1749 11.2856 10.8894C11.5711 10.6039 11.7798 10.2508 11.8924 9.86311C12.0049 9.47532 12.0176 9.06544 11.9294 8.67146C12.2678 8.45498 12.5464 8.15677 12.7394 7.80445C12.9325 7.45207 13.0338 7.05676 13.0341 6.655C13.0342 6.25147 12.9324 5.85445 12.7381 5.50077C12.5438 5.14709 12.2634 4.84822 11.9227 4.63188C12.0109 4.2379 11.9982 3.828 11.8857 3.44024C11.7732 3.05249 11.5645 2.69947 11.279 2.41398C10.9935 2.12849 10.6404 1.91977 10.2527 1.80722C9.86491 1.69468 9.45503 1.68196 9.06105 1.77023C8.84456 1.43178 8.54635 1.15321 8.19397 0.960162C7.84165 0.767114 7.44635 0.665785 7.04458 0.665499Z" fill="#513DFF" stroke="white" stroke-width="1.33281" stroke-linecap="round" stroke-linejoin="round"/>
<path d="M9.04109 5.324L6.37909 7.986" stroke="white" stroke-width="1.33281" stroke-linecap="round" stroke-linejoin="round"/>
<path d="M5.04808 6.655L6.37908 7.986" stroke="white" stroke-width="1.33281" stroke-linecap="round" stroke-linejoin="round"/>
</g>
<defs>
<clipPath id="clip0_5_44">
<rect width="13.31" height="14.31" fill="white" transform="translate(0.389587)"/>
</clipPath>
</defs>
</svg>
